HIERARCHY
ROOT Hips
{
  OFFSET 50.5095 94.3556 14.9279
  CHANNELS 6 Xposition Yposition Zposition Zrotation Xrotation Yrotation
  JOINT spine
  {
    OFFSET 0 7.80059 0.448573
    CHANNELS 3 Zrotation Xrotation Yrotation
    JOINT spine1
    {
      OFFSET 0 10.1364 0
      CHANNELS 3 Zrotation Xrotation Yrotation
      JOINT spine2
      {
        OFFSET 0 9.71251 0
        CHANNELS 3 Zrotation Xrotation Yrotation
        JOINT Neck
        {
          OFFSET 0 24.9361 1.18887
          CHANNELS 3 Zrotation Xrotation Yrotation
          JOINT Head
          {
            OFFSET 0 7.53384 0
            CHANNELS 3 Zrotation Xrotation Yrotation
            End Site
            {
              OFFSET 0 18.2361 -6.01402
            }
          }
        }
        JOINT RightShoulder
        {
          OFFSET -4.08965 10.4888 -0.569457
          CHANNELS 3 Zrotation Xrotation Yrotation
          JOINT RightArm
          {
            OFFSET 0 13.757 0
            CHANNELS 3 Zrotation Xrotation Yrotation
            JOINT RightArmRoll
            {
              OFFSET 0 6.94478 0
              CHANNELS 3 Zrotation Xrotation Yrotation
              JOINT RightForeArm
              {
                OFFSET 0 20.2277 0
                CHANNELS 3 Zrotation Xrotation Yrotation
                JOINT RightForeArmRoll
                {
                  OFFSET 0 7.79312 0
                  CHANNELS 3 Zrotation Xrotation Yrotation
                  JOINT RightHand
                  {
                    OFFSET 0 15.6391 0
                    CHANNELS 3 Zrotation Xrotation Yrotation
                    End Site
                    {
                      OFFSET 0 0 0
                    }
                  }
                }
              }
            }
          }
        }
        JOINT LeftShoulder
        {
          OFFSET 4.08965 10.4888 -0.569457
          CHANNELS 3 Zrotation Xrotation Yrotation
          JOINT LeftArm
          {
            OFFSET 0 13.757 0
            CHANNELS 3 Zrotation Xrotation Yrotation
            JOINT LeftArmRoll
            {
              OFFSET 0 6.94478 0
              CHANNELS 3 Zrotation Xrotation Yrotation
              JOINT LeftForeArm
              {
                OFFSET 0 20.2277 0
                CHANNELS 3 Zrotation Xrotation Yrotation
                JOINT LeftForeArmRoll
                {
                  OFFSET 0 7.79312 0
                  CHANNELS 3 Zrotation Xrotation Yrotation
                  JOINT LeftHand
                  {
                    OFFSET 0 15.6391 0
                    CHANNELS 3 Zrotation Xrotation Yrotation
                    End Site
                    {
                      OFFSET 0 0 0
                    }
                  }
                }
              }
            }
          }
        }
      }
    }
  }
  JOINT RightUpLeg
  {
    OFFSET -6.91416 -1.26788 -1.06358
    CHANNELS 3 Zrotation Xrotation Yrotation
    JOINT RightUpLegRoll
    {
      OFFSET 0 18.3378 0
      CHANNELS 3 Zrotation Xrotation Yrotation
      JOINT RightLeg
      {
        OFFSET 0 -22.7085 0
        CHANNELS 3 Zrotation Xrotation Yrotation
        JOINT RightLegRoll
        {
          OFFSET 0 22.7828 0
          CHANNELS 3 Zrotation Xrotation Yrotation
          JOINT RightFoot
          {
            OFFSET 0 18.9629 0
            CHANNELS 3 Zrotation Xrotation Yrotation
            JOINT RightToeBase
            {
              OFFSET 0 15.852 0
              CHANNELS 3 Zrotation Xrotation Yrotation
              End Site
              {
                OFFSET 0.00671906 7.67701 -0.884893
              }
            }
          }
        }
      }
    }
  }
  JOINT LeftUpLeg
  {
    OFFSET 6.91416 -1.26788 -1.06358
    CHANNELS 3 Zrotation Xrotation Yrotation
    JOINT LeftUpLegRoll
    {
      OFFSET 0 18.3379 0
      CHANNELS 3 Zrotation Xrotation Yrotation
      JOINT LeftLeg
      {
        OFFSET 0 22.7084 0
        CHANNELS 3 Zrotation Xrotation Yrotation
        JOINT LeftLegRoll
        {
          OFFSET 0 22.9934 0
          CHANNELS 3 Zrotation Xrotation Yrotation
          JOINT LeftFoot
          {
            OFFSET 0 18.7522 0
            CHANNELS 3 Zrotation Xrotation Yrotation
            JOINT LeftToeBase
            {
              OFFSET 0 15.852 0
              CHANNELS 3 Zrotation Xrotation Yrotation
              End Site
              {
                OFFSET -0.030112 7.677 -0.884893
              }
            }
          }
        }
      }
    }
  }
}
MOTION
Frames: 13
Frame Time: 0.00208333
49.3321 94.3771 13.8222 -1.58203 -5.9011 1.96252 -0.949851 -0.863909 0.0893896 -1.90029 2.28077 0.281048 -1.90557 3.92531 0.313171 16.6819 15.3547 -7.84399 20.3928 -10.0452 0.876734 25.2633 -15.6879 -12.6577 32.6588 32.4166 67.9216 1.79418e-006 -6.15824e-007 9.03361e-007 4.7077 69.2866 -1.2102 -5.45525e-006 3.0624e-006 -3 8.02893 -4.95126 0.697607 -68.8276 1.27157 0.567439 -97.9463 6.18193 -17.98 4.37326e-015 2.38542e-015 -0 -2.25601 14.2713 1.2569 1.27137e-005 -3.65466e-006 3 -8.02908 -4.95164 -0.697755 -179.159 -2.86375 -1.58519 180 7.0154e-015 178.894 179.134 7.10628 179.593 6.58399e-007 -4.47814e-006 0.112569 -18.5617 68.9033 20.2897 8.13649 25.2327 -3.48774 -177.176 -2.20845 4.95411 4.54188e-006 -4.6773e-006 -1.32873 -4.72978 -11.2468 -0.247607 -8.95488e-007 -4.00096e-006 -0.236257 24.1155 71.5032 -23.2237 -8.13649 25.2327 3.48773 
49.3246 94.3775 13.8184 -1.58103 -5.91023 1.93775 -0.950777 -0.864303 0.0886553 -1.90213 2.28007 0.279662 -1.90741 3.92461 0.311766 16.7113 15.3267 -7.85748 20.3809 -9.98476 0.854534 25.199 -15.7009 -12.6799 32.4731 32.5299 67.8153 1.79418e-006 -6.15824e-007 9.03361e-007 4.96399 69.7895 -1.41929 -5.45525e-006 3.0624e-006 -3 8.02893 -4.95126 0.697607 -68.8375 1.26855 0.5702 -97.9553 6.18487 -17.9673 -1.98785e-015 -7.95139e-016 -0 -2.26246 14.2878 1.25848 1.27137e-005 -3.65466e-006 3 -8.02908 -4.95164 -0.697755 -179.159 -2.87065 -1.58329 180 7.0154e-015 178.894 179.132 7.10816 179.593 6.58399e-007 -4.47814e-006 0.112709 -18.5655 68.9031 20.2901 8.13649 25.2327 -3.48774 -177.174 -2.23055 4.95126 4.54188e-006 -4.6773e-006 -1.32881 -4.73179 -11.2322 -0.247363 -8.95488e-007 -4.00096e-006 -0.23565 24.1056 71.4988 -23.218 -8.13649 25.2327 3.48773 
49.3133 94.4126 13.8113 -1.58012 -5.92012 1.91306 -0.951598 -0.86463 0.0879379 -1.90378 2.27934 0.278651 -1.90904 3.92387 0.310746 16.7401 15.3103 -7.87041 20.3749 -9.9378 0.838046 25.1351 -15.7133 -12.7014 32.2827 32.6405 67.7026 1.79418e-006 -6.15824e-007 9.03361e-007 5.22131 70.2862 -1.63379 -5.45525e-006 3.0624e-006 -3 8.02893 -4.95126 0.697607 -68.8474 1.26784 0.571814 -97.9649 6.18603 -17.9549 8.34896e-015 3.97569e-015 -3.18055e-015 -2.26907 14.3037 1.26014 1.27137e-005 -3.65466e-006 3 -8.02908 -4.95164 -0.697755 -179.159 -2.87738 -1.58157 180 7.0154e-015 178.893 179.132 7.11243 179.594 6.58399e-007 -4.47814e-006 0.112962 -18.5699 68.9044 20.2917 8.13649 25.2327 -3.48774 -177.171 -2.25303 4.94871 4.54188e-006 -4.6773e-006 -1.32883 -4.73347 -11.2185 -0.247171 -8.95488e-007 -4.00096e-006 -0.235105 24.097 71.4951 -23.2131 -8.13649 25.2327 3.48773 
49.3046 94.408 13.8166 -1.57928 -5.93077 1.88831 -0.952321 -0.864843 0.0872148 -1.90524 2.27868 0.277962 -1.9105 3.92321 0.310051 16.7678 15.3019 -7.88312 20.3745 -9.89985 0.825302 25.0715 -15.7253 -12.7225 32.0885 32.7483 67.5821 1.79418e-006 -6.15824e-007 9.03361e-007 5.48409 70.7792 -1.85761 -5.45525e-006 3.0624e-006 -3 8.02893 -4.95126 0.697607 -68.8569 1.26928 0.572326 -97.9755 6.18575 -17.943 9.93923e-015 7.95139e-016 -0 -2.27547 14.3188 1.26178 1.27137e-005 -3.65466e-006 3 -8.02908 -4.95164 -0.697755 -179.158 -2.88478 -1.57968 180 7.0154e-015 178.893 179.131 7.11762 179.594 6.58399e-007 -4.47814e-006 0.113265 -18.5741 68.9062 20.2937 8.13649 25.2327 -3.48774 -177.17 -2.27578 4.94666 4.54188e-006 -4.6773e-006 -1.32884 -4.7347 -11.2062 -0.247034 -8.95488e-007 -4.00096e-006 -0.234636 24.0902 71.4922 -23.2093 -8.13649 25.2327 3.48773 
49.3099 94.3762 13.8412 -1.5785 -5.9421 1.86347 -0.952961 -0.86496 0.0864884 -1.90655 2.27807 0.27755 -1.9118 3.92261 0.309638 16.7946 15.3007 -7.89559 20.3789 -9.87002 0.815949 25.0082 -15.737 -12.7432 31.8909 32.8537 67.4545 1.79418e-006 -6.15824e-007 9.03361e-007 5.75258 71.2686 -2.09083 -5.45525e-006 3.0624e-006 -3 8.02893 -4.95126 0.697607 -68.8663 1.27257 0.571896 -97.9869 6.18416 -17.9314 -2.46493e-014 -1.11319e-014 -3.18055e-015 -2.28174 14.3331 1.26342 1.27137e-005 -3.65466e-006 3 -8.02908 -4.95164 -0.697755 -179.158 -2.89282 -1.57762 180 7.0154e-015 178.893 179.13 7.1235 179.594 6.58399e-007 -4.47814e-006 0.113607 -18.5783 68.9085 20.296 8.13649 25.2327 -3.48774 -177.168 -2.29884 4.945 4.54188e-006 -4.6773e-006 -1.32883 -4.73558 -11.1949 -0.246939 -8.95488e-007 -4.00096e-006 -0.234227 24.0848 71.4901 -23.2065 -8.13649 25.2327 3.48773 
49.2965 94.3891 13.8343 -1.57779 -5.95401 1.83855 -0.953531 -0.864997 0.0857614 -1.90772 2.27751 0.277375 -1.91297 3.92204 0.309465 16.8206 15.3058 -7.90783 20.3873 -9.84745 0.809636 24.9452 -15.7483 -12.7636 31.6905 32.9572 67.3203 1.79418e-006 -6.15824e-007 9.03361e-007 6.02703 71.7542 -2.33356 -5.45525e-006 3.0624e-006 -3 8.02893 -4.95126 0.697607 -68.8756 1.2774 0.570687 -97.999 6.18139 -17.9201 1.19271e-015 -1.59028e-015 -3.18055e-015 -2.28796 14.3468 1.26508 1.27137e-005 -3.65466e-006 3 -8.02908 -4.95164 -0.697755 -179.158 -2.90148 -1.57543 180 7.0154e-015 178.892 179.129 7.12981 179.595 6.58399e-007 -4.47814e-006 0.113977 -18.5823 68.9111 20.2985 8.13649 25.2327 -3.48774 -177.167 -2.32226 4.94362 4.54188e-006 -4.6773e-006 -1.32881 -4.73619 -11.1843 -0.246876 -8.95488e-007 -4.00096e-006 -0.233864 24.0804 71.4885 -23.2042 -8.13649 25.2327 3.48773 
49.286 94.3789 13.829 -1.57716 -5.96641 1.81351 -0.954044 -0.864971 0.0850361 -1.90879 2.27698 0.277392 -1.91403 3.92151 0.309488 16.8463 15.3165 -7.91983 20.3989 -9.83124 0.806012 24.8824 -15.7594 -12.7837 31.4875 33.0592 67.1803 1.79418e-006 -6.15824e-007 9.03361e-007 6.30767 72.2361 -2.58588 -5.45525e-006 3.0624e-006 -3 8.02893 -4.95126 0.697607 -68.885 1.28349 0.568862 -98.0115 6.17756 -17.9091 -1.47101e-014 -3.18055e-015 -6.36111e-015 -2.29421 14.36 1.26676 1.27137e-005 -3.65466e-006 3 -8.02908 -4.95164 -0.697755 -179.158 -2.91074 -1.57313 180 7.0154e-015 178.892 179.128 7.13636 179.595 6.58399e-007 -4.47814e-006 0.114366 -18.5863 68.914 20.3012 8.13649 25.2327 -3.48774 -177.165 -2.34606 4.94242 4.54188e-006 -4.6773e-006 -1.32876 -4.73661 -11.1743 -0.246833 -8.95488e-007 -4.00096e-006 -0.233529 24.0767 71.4872 -23.2024 -8.13649 25.2327 3.48773 
49.2866 94.3809 13.8356 -1.57659 -5.97923 1.78834 -0.954515 -0.864899 0.0843151 -1.90977 2.27647 0.277561 -1.915 3.921 0.309666 16.8717 15.3319 -7.93159 20.4129 -9.82052 0.804726 24.8199 -15.7702 -12.8034 31.2824 33.1603 67.0351 1.79418e-006 -6.15824e-007 9.03361e-007 6.59474 72.7144 -2.84789 -5.45525e-006 3.0624e-006 -3 8.02893 -4.95126 0.697607 -68.8945 1.29052 0.566581 -98.0242 6.17279 -17.8983 7.15625e-015 3.97569e-015 -3.18055e-015 -2.30056 14.3728 1.26849 1.27137e-005 -3.65466e-006 3 -8.02908 -4.95164 -0.697755 -179.158 -2.92058 -1.57074 180 7.0154e-015 178.891 179.127 7.14291 179.595 6.58399e-007 -4.47814e-006 0.114764 -18.5902 68.917 20.3039 8.13649 25.2327 -3.48774 -177.164 -2.37028 4.94127 4.54188e-006 -4.6773e-006 -1.32868 -4.73695 -11.1644 -0.2468 -8.95488e-007 -4.00096e-006 -0.233209 24.0732 71.486 -23.2006 -8.13649 25.2327 3.48773 
49.2801 94.3802 13.8336 -1.57611 -5.99236 1.76303 -0.954956 -0.864797 0.083601 -1.91068 2.27595 0.277838 -1.91592 3.92048 0.309954 16.8972 15.3511 -7.94308 20.4285 -9.81441 0.805428 24.7577 -15.7809 -12.823 31.0757 33.261 66.8854 1.79418e-006 -6.15824e-007 9.03361e-007 6.88848 73.1889 -3.11968 -5.45525e-006 3.0624e-006 -3 8.02893 -4.95126 0.697607 -68.9042 1.29821 0.564008 -98.0369 6.16722 -17.8875 -1.19271e-014 -5.56597e-015 -6.36111e-015 -2.30709 14.3853 1.27028 1.27137e-005 -3.65466e-006 3 -8.02908 -4.95164 -0.697755 -179.158 -2.93098 -1.56828 180 7.0154e-015 178.891 179.126 7.14922 179.596 6.58399e-007 -4.47814e-006 0.11516 -18.594 68.92 20.3066 8.13649 25.2327 -3.48774 -177.163 -2.39497 4.94008 4.54188e-006 -4.6773e-006 -1.32857 -4.73728 -11.1544 -0.246765 -8.95488e-007 -4.00096e-006 -0.232887 24.0696 71.4847 -23.1988 -8.13649 25.2327 3.48773 
49.2658 94.3781 13.8359 -1.57572 -6.00572 1.73755 -0.955382 -0.864682 0.0828962 -1.91156 2.27543 0.278181 -1.91679 3.91996 0.310311 16.9231 15.3735 -7.95432 20.4448 -9.81203 0.80777 24.6958 -15.7913 -12.8423 30.8676 33.3617 66.7318 1.79418e-006 -6.15824e-007 9.03361e-007 7.18912 73.6596 -3.40134 -5.45525e-006 3.0624e-006 -3 8.02893 -4.95126 0.697607 -68.9143 1.30625 0.561304 -98.0493 6.16097 -17.8769 -2.26615e-014 -1.11319e-014 -6.36111e-015 -2.31389 14.3975 1.27214 1.27137e-005 -3.65466e-006 3 -8.02908 -4.95164 -0.697755 -179.157 -2.94191 -1.56577 180 7.01539e-015 178.891 179.125 7.15507 179.596 6.58399e-007 -4.47814e-006 0.115544 -18.5977 68.9229 20.3093 8.13649 25.2327 -3.48774 -177.162 -2.42015 4.93873 4.54188e-006 -4.6773e-006 -1.32842 -4.7377 -11.1441 -0.246718 -8.95488e-007 -4.00096e-006 -0.232547 24.0655 71.4832 -23.1966 -8.13649 25.2327 3.48773 
49.2534 94.3782 13.8403 -1.57541 -6.01923 1.71189 -0.955806 -0.864571 0.0822032 -1.91243 2.27488 0.278547 -1.91765 3.91941 0.310694 16.9496 15.3982 -7.96528 20.4611 -9.8125 0.8114 24.634 -15.8016 -12.8615 30.6588 33.463 66.575 1.79418e-006 -6.15824e-007 9.03361e-007 7.49689 74.1266 -3.69295 -5.45525e-006 3.0624e-006 -3 8.02893 -4.95126 0.697607 -68.9249 1.31434 0.558631 -98.0613 6.15417 -17.8662 -6.75868e-015 -3.18055e-015 -3.18055e-015 -2.32103 14.4096 1.2741 1.27137e-005 -3.65466e-006 3 -8.02908 -4.95164 -0.697755 -179.157 -2.95336 -1.56325 180 7.01539e-015 178.89 179.124 7.16024 179.597 6.58399e-007 -4.47814e-006 0.115907 -18.6014 68.9257 20.3117 8.13649 25.2327 -3.48774 -177.16 -2.44587 4.93711 4.54188e-006 -4.6773e-006 -1.32823 -4.73831 -11.1332 -0.246646 -8.95488e-007 -4.00096e-006 -0.232174 24.0604 71.4812 -23.1937 -8.13649 25.2327 3.48773 
49.2492 94.3766 13.8428 -1.57519 -6.03279 1.68604 -0.956242 -0.864481 0.0815245 -1.91331 2.2743 0.278894 -1.91853 3.91882 0.311059 16.9769 15.4243 -7.97597 20.4765 -9.81494 0.815971 24.5725 -15.8117 -12.8805 30.4494 33.5654 66.4157 1.79418e-006 -6.15824e-007 9.03361e-007 7.81199 74.5898 -3.99459 -5.45525e-006 3.0624e-006 -3 8.02893 -4.95126 0.697607 -68.936 1.32218 0.556151 -98.0727 6.14694 -17.8554 1.03368e-014 2.38542e-015 -0 -2.32858 14.4217 1.27617 1.27137e-005 -3.65466e-006 3 -8.02908 -4.95164 -0.697755 -179.157 -2.9653 -1.56073 180 7.01539e-015 178.89 179.123 7.16448 179.597 6.58399e-007 -4.47814e-006 0.116239 -18.605 68.9282 20.3139 8.13649 25.2327 -3.48774 -177.159 -2.47217 4.93511 4.54188e-006 -4.6773e-006 -1.328 -4.73918 -11.1214 -0.24654 -8.95488e-007 -4.00096e-006 -0.231753 24.0541 71.4785 -23.1899 -8.13649 25.2327 3.48773 
49.2423 94.381 13.8494 -1.57506 -6.04632 1.65997 -0.956703 -0.864428 0.0808627 -1.91422 2.27366 0.279179 -1.91944 3.91818 0.311364 17.0053 15.451 -7.98638 20.4903 -9.81848 0.821131 24.5112 -15.8217 -12.8994 30.2401 33.6695 66.2547 1.79418e-006 -6.15824e-007 9.03361e-007 8.13464 75.0492 -4.30635 -5.45525e-006 3.0624e-006 -3 8.02893 -4.95126 0.697607 -68.9478 1.32948 0.554026 -98.0832 6.13941 -17.8445 9.14409e-015 2.38542e-015 -0 -2.33663 14.4339 1.27837 1.27137e-005 -3.65466e-006 3 -8.02908 -4.95164 -0.697755 -179.157 -2.97772 -1.55824 180 7.01539e-015 178.89 179.122 7.16758 179.598 6.58399e-007 -4.47814e-006 0.116529 -18.6086 68.9302 20.3157 8.13649 25.2327 -3.48774 -177.156 -2.49907 4.93263 4.54188e-006 -4.6773e-006 -1.32771 -4.74041 -11.1084 -0.246388 -8.95488e-007 -4.00096e-006 -0.231267 24.0462 71.475 -23.185 -8.13649 25.2327 3.48773 
